# xmcd
#
# Track frame offsets:
#	150
#	22290
#	37916
#	51811
#	75372
#	88779
#	122946
#	142478
#	161025
#	185456
#
# Disc length: 2787 seconds
#
# Revision: 1
# Processed by: cddbd v1.5.2PL0 Copyright (c) Steve Scherf et al.
# Submitted via: audiograbber 1.83.01
#
DISCID=8a0ae10a
DTITLE=The 4Horsemen - Stepping Out
DYEAR=2010
DGENRE=Blues
TTITLE0=Kill To Live
TTITLE1=The 4Horsemen
TTITLE2=Desire
TTITLE3=Blind Man
TTITLE4=Stepping Out
TTITLE5=Lonely Pain
TTITLE6=Creeps
TTITLE7=Black Crowes
TTITLE8=I Don't Care
TTITLE9=Nightmare
EXTD=
EXTT0=
EXTT1=
EXTT2=
EXTT3=
EXTT4=
EXTT5=
EXTT6=
EXTT7=
EXTT8=
EXTT9=
PLAYORDER=
